<svg viewBox="0 0 872.8844 155.57954">
  <g transform="matrix(1.25,0,0,-1.25,-217.01035,600.17241)">
    <g class="nori">
      <g transform="translate(268.8006,474.2179)">
        <path d="M 0,0 C -1.169,1.187 -2.738,1.849 -4.397,1.835 -6.021,1.849 -7.558,1.176 -8.715,-0.001 -9.87,-1.136 -10.487,-2.687 -10.473,-4.32 l 0,-85.965 -69.735,89.755 0.007,-0.008 c -0.582,0.76 -1.263,1.383 -2.053,1.81 -0.787,0.43 -1.674,0.651 -2.576,0.648 -0.744,0 -1.495,-0.142 -2.245,-0.398 L -87.081,1.52 -87.086,1.519 c -1.261,-0.438 -2.339,-1.171 -3.06,-2.203 -0.724,-1.029 -1.05,-2.291 -1.046,-3.636 l 0,-103.917 c -0.017,-1.627 0.636,-3.167 1.811,-4.285 l -0.004,-0.003 c 0.009,-0.009 0.02,-0.015 0.029,-0.025 0.012,-0.011 0.019,-0.023 0.03,-0.034 l 0.004,0.004 c 1.118,-1.177 2.656,-1.828 4.285,-1.812 1.627,-0.016 3.166,0.638 4.284,1.812 l 0.004,-0.004 c 0.012,0.011 0.021,0.025 0.032,0.036 0.008,0.008 0.018,0.014 0.025,0.022 l -0.003,0.003 c 1.175,1.118 1.828,2.657 1.812,4.286 l 0,85.961 69.71,-89.823 0.142,-0.141 0.004,-0.004 0.079,-0.078 c 0.154,-0.154 0.233,-0.233 0.233,-0.233 l -0.005,0.004 c 0.002,-0.001 0.082,-0.082 0.241,-0.241 l 0.099,-0.099 0.115,-0.078 0.136,-0.095 0.007,-0.004 0.062,-0.062 0.103,-0.069 c 0.182,-0.123 0.374,-0.226 0.569,-0.327 l 0.124,-0.088 0.206,-0.205 0.317,-0.105 c 0.113,-0.038 0.308,-0.111 0.561,-0.211 l 0.086,-0.033 0.405,-0.102 0.055,-0.014 0.056,-0.009 c 0.392,-0.065 0.786,-0.099 1.181,-0.099 0.357,0 0.723,0.035 1.101,0.099 0.09,0.012 0.162,0.027 0.229,0.043 l 0.241,0.07 c 0.221,0.057 0.43,0.114 0.625,0.181 l 0.088,0.03 0.399,0.199 -0.006,0.012 c 0.222,0.09 0.442,0.186 0.637,0.316 l 0.236,0.157 0.032,0.022 0.031,0.023 0.215,0.167 0.047,0.043 0.168,0.132 0.063,0.052 0.056,0.056 c 0.155,0.156 0.257,0.257 0.31,0.311 0.193,0.191 0.351,0.396 0.497,0.613 0.099,0.149 0.176,0.286 0.254,0.429 0.167,0.222 0.305,0.458 0.385,0.699 l 0.003,0.008 0,0.003 0.078,0.197 0.004,0.007 0.002,0.007 c 0.124,0.259 0.188,0.48 0.258,0.743 l -0.002,0 c 0.042,0.142 0.075,0.3 0.097,0.476 0.063,0.239 0.106,0.487 0.106,0.744 l 0,0.316 0,0.04 0,103.877 c 0.014,1.635 -0.603,3.184 -1.756,4.319 L 0,0 z" />
      </g>
      <g transform="translate(380.6658,385.5282)">
        <path d="M 0,0 C -8.98,-8.959 -19.639,-13.379 -32.294,-13.393 -44.95,-13.379 -55.609,-8.959 -64.587,0 c -8.96,8.976 -13.379,19.636 -13.393,32.293 0.014,12.655 4.433,23.315 13.393,32.293 l 0.003,0.003 c 8.979,9.009 19.636,13.454 32.29,13.468 12.653,-0.014 23.311,-4.459 32.291,-13.468 L 0.003,64.583 C 9.013,55.604 13.456,44.947 13.47,32.293 13.456,19.637 9.013,8.98 0.003,0.003 L 0,0 z m 8.715,73.301 c -11.274,11.295 -25.05,17.001 -41.009,16.987 -15.959,0.014 -29.734,-5.692 -41.008,-16.987 -11.295,-11.273 -17.001,-25.05 -16.987,-41.008 -0.014,-15.958 5.692,-29.735 16.987,-41.008 11.274,-11.296 25.049,-17.001 41.008,-16.987 15.959,-0.014 29.735,5.691 41.009,16.987 C 20.01,2.558 25.714,16.335 25.701,32.293 25.714,48.251 20.01,62.028 8.715,73.301" />
      </g>
      <g transform="translate(501.0534,443.2615)">
        <path d="m 0,0 c 0,4.331 -0.829,8.382 -2.494,12.105 -1.664,3.726 -4.161,7.119 -7.451,10.168 l -0.003,0.004 c -6.633,6.102 -14.714,9.183 -24.018,9.173 l -35.583,0 c -1.528,0.011 -2.957,-0.574 -4.076,-1.643 l -0.01,-0.012 -0.013,-0.009 c -0.958,-0.945 -1.495,-2.185 -1.615,-3.524 -0.068,-0.359 -0.105,-0.728 -0.101,-1.105 l 0,-102.901 c -0.018,-1.558 0.601,-3.004 1.723,-4.069 l -0.005,-0.002 c 0.011,-0.01 0.021,-0.017 0.026,-0.024 0.009,-0.007 0.016,-0.016 0.023,-0.023 l 0.003,0.002 c 1.067,-1.126 2.513,-1.74 4.073,-1.727 1.557,-0.013 3,0.603 4.068,1.727 l 0.004,-0.002 c 0.007,0.007 0.014,0.015 0.021,0.022 0.007,0.007 0.018,0.015 0.025,0.022 l -0.003,0.004 c 1.124,1.066 1.738,2.512 1.725,4.07 l 0,46.292 24.376,0 23.959,-48.614 c 0.49,-1.015 1.189,-1.852 2.087,-2.408 0.896,-0.562 1.957,-0.82 3.091,-0.817 0.896,-0.001 1.762,0.193 2.547,0.588 l 0.015,0.007 -0.012,-0.007 c 1.388,0.683 2.42,1.852 2.916,3.311 0.215,0.616 0.328,1.246 0.328,1.88 0,0.867 -0.215,1.727 -0.619,2.531 l 0.004,-0.007 -21.736,44.31 c 7.365,1.428 13.608,4.853 18.57,10.278 l -0.003,-0.006 C -2.746,-14.577 0.007,-7.705 0,0 m -33.432,-19.844 -30.246,0 0,39.764 29.712,0 c 6.258,-0.009 11.482,-1.965 15.901,-5.916 L -18.06,14 c 2.203,-1.956 3.826,-4.088 4.909,-6.407 1.078,-2.322 1.619,-4.837 1.621,-7.594 -0.002,-2.705 -0.53,-5.186 -1.584,-7.483 -1.057,-2.295 -2.644,-4.413 -4.798,-6.371 l -0.006,-0.004 0,-10e-4 c -4.26,-3.897 -9.362,-5.875 -15.514,-5.984"/>
      </g>
      <g transform="translate(539.9976,468.7111)">
        <path d="m 0,0 c 0.014,1.558 -0.603,3.003 -1.727,4.07 l 0.003,0.004 C -1.731,4.082 -1.739,4.088 -1.746,4.095 -1.755,4.103 -1.76,4.111 -1.77,4.12 L -1.773,4.116 C -2.838,5.24 -4.285,5.855 -5.841,5.843 -7.402,5.855 -8.847,5.239 -9.917,4.116 L -9.918,4.12 C -9.929,4.11 -9.932,4.1 -9.942,4.093 -9.948,4.086 -9.957,4.081 -9.964,4.074 L -9.96,4.071 C -11.08,3.004 -11.699,1.559 -11.685,0 l 0,-102.904 c -0.014,-1.562 0.605,-3.005 1.725,-4.072 l -0.004,-0.003 c 0.007,-0.007 0.018,-0.014 0.025,-0.022 0.007,-0.006 0.014,-0.016 0.021,-0.021 l 0.003,0.001 c 1.069,-1.123 2.513,-1.735 4.074,-1.721 1.556,-0.014 2.999,0.598 4.068,1.721 l 0.003,-0.002 c 0.011,0.006 0.017,0.016 0.024,0.022 0.008,0.011 0.015,0.015 0.022,0.022 l -0.003,0.003 c 1.124,1.069 1.741,2.512 1.727,4.072 L 0,0 z" />
      </g>
    </g>
    <g class="pyt">
      <g transform="translate(825.5548,449.652)">
        <path d="m 0,0 c 0,6.022 0.589,10.526 1.763,13.506 1.173,2.983 3.278,4.474 6.314,4.474 l 3.865,0 c 6.93,0 12.381,-1.419 16.362,-4.253 3.978,-2.833 6.683,-7.643 8.118,-14.43 2.638,0 4.62,0.29 5.939,0.875 -1.376,9.213 -2.125,17.568 -2.236,25.057 0,0.334 -0.176,0.498 -0.52,0.498 C 28.859,24.809 15.676,24.348 0.054,24.348 l -15.17,0 c -15.51,0 -29.211,0.461 -41.104,1.379 -0.516,0 -0.776,-0.171 -0.776,-0.516 -0.572,-6.947 -2.034,-15.469 -4.39,-25.572 1.551,-0.571 3.561,-0.858 6.027,-0.858 1.608,7.01 4.364,11.962 8.266,14.856 3.902,2.895 8.894,4.343 14.98,4.343 l 8.612,0 c 3.098,0 5.264,-1.477 6.502,-4.431 1.231,-2.956 1.847,-7.297 1.847,-13.033 l 0,-67.786 c 0,-7.053 -0.994,-11.442 -2.983,-13.162 -1.994,-1.72 -6.654,-2.697 -13.985,-2.926 -0.453,-0.634 -0.681,-1.728 -0.681,-3.279 0,-1.555 0.172,-2.584 0.517,-3.09 11.577,0.254 19.844,0.378 24.795,0.378 4.544,0 12.71,-0.124 24.499,-0.378 0.63,0.506 0.928,1.535 0.9,3.09 -0.03,1.551 -0.328,2.645 -0.9,3.279 -7.39,0.287 -12.071,1.278 -14.045,2.97 -1.975,1.69 -2.964,6.065 -2.964,13.118 L 0.001,0 0,0 z m -112.396,-43.759 c 0,1.989 0.06,3.552 0.172,4.685 0.117,1.136 0.4,2.44 0.86,3.918 0.457,1.474 1.15,3.037 2.068,4.682 l 21.094,37.643 c 2.354,4.2 4.664,7.025 6.93,8.471 2.266,1.447 5.525,2.34 9.771,2.683 0.633,0.561 0.934,1.609 0.905,3.137 -0.031,1.533 -0.329,2.609 -0.905,3.235 -7.059,-0.25 -11.939,-0.376 -14.635,-0.376 -1.264,0 -6.602,0.126 -16.015,0.376 -0.575,-0.626 -0.861,-1.719 -0.861,-3.281 0,-1.56 0.286,-2.594 0.861,-3.09 2.067,-0.115 3.704,-0.329 4.907,-0.638 1.207,-0.312 2.137,-0.81 2.799,-1.491 0.66,-0.68 0.903,-1.587 0.734,-2.725 -0.174,-1.137 -0.72,-2.584 -1.639,-4.344 l -19.489,-36.448 c -0.75,-1.305 -1.391,-1.93 -1.911,-1.871 -0.523,0.055 -1.192,0.795 -2.007,2.212 l -20.586,35.682 c -2.184,3.747 -2.886,6.216 -2.11,7.408 0.774,1.191 3.601,1.931 8.481,2.215 0.568,0.56 0.861,1.608 0.861,3.138 0,1.532 -0.293,2.609 -0.861,3.233 -9.416,-0.25 -16.134,-0.375 -20.147,-0.375 -4.938,0 -10.938,0.125 -17.994,0.375 -0.46,-0.624 -0.689,-1.685 -0.689,-3.185 0,-1.501 0.286,-2.559 0.858,-3.186 2.758,-0.169 4.879,-0.511 6.374,-1.024 1.49,-0.509 3.056,-1.574 4.691,-3.194 1.636,-1.618 3.457,-4.101 5.469,-7.449 l 23.158,-38.493 c 1.552,-2.669 2.553,-4.798 3.017,-6.389 0.459,-1.589 0.686,-3.945 0.686,-7.066 l 0,-22.141 c 0,-6.983 -0.994,-11.327 -2.983,-13.029 -1.991,-1.704 -6.653,-2.669 -13.984,-2.897 -0.57,-0.634 -0.852,-1.728 -0.852,-3.279 0,-1.555 0.282,-2.584 0.858,-3.09 11.496,0.254 19.703,0.378 24.626,0.378 4.575,0 12.727,-0.124 24.454,-0.378 0.456,0.506 0.687,1.535 0.687,3.09 0,1.551 -0.231,2.645 -0.681,3.279 -7.336,0.286 -12,1.265 -13.988,2.94 -1.991,1.673 -2.984,6.003 -2.984,12.986 l 0,23.673 z m -136.186,-23.659 c 0,-6.99 -0.896,-11.336 -2.684,-13.041 -1.788,-1.706 -5.948,-2.671 -12.477,-2.899 -0.571,-0.634 -0.852,-1.728 -0.852,-3.279 0,-1.555 0.286,-2.584 0.859,-3.09 11.438,0.254 19.042,0.378 22.818,0.378 5.175,0 13.656,-0.124 25.444,-0.378 0.485,0.506 0.728,1.535 0.728,3.09 0,1.551 -0.286,2.645 -0.85,3.279 -7.455,0.396 -12.287,1.422 -14.508,3.083 -2.217,1.657 -3.324,5.893 -3.324,12.701 l 0,29.37 c 3.665,-1.233 8.419,-1.846 14.26,-1.846 7.406,0 13.874,1.14 19.414,3.418 5.539,2.279 9.756,5.28 12.652,9 2.893,3.722 5.023,7.562 6.385,11.512 1.365,3.954 2.047,8.008 2.047,12.16 0,3.124 -0.541,6.192 -1.626,9.199 -1.083,3.012 -2.932,6.151 -5.544,9.422 -2.613,3.266 -6.583,5.899 -11.919,7.898 -5.335,1.994 -11.695,2.995 -19.089,2.995 -1.323,0 -5.047,-0.203 -11.175,-0.604 -6.125,-0.402 -10.482,-0.602 -13.071,-0.602 -3.372,0 -10.923,0.114 -22.642,0.346 -0.573,-0.661 -0.859,-1.754 -0.859,-3.292 0,-1.534 0.281,-2.536 0.852,-2.993 6.529,-0.225 10.689,-1.174 12.477,-2.85 1.788,-1.678 2.684,-6.01 2.684,-12.998 l 0,-69.979 z m 30.446,86.603 c 7.272,0 13.141,-1.851 17.611,-5.552 4.465,-3.703 6.699,-10.617 6.699,-20.753 0,-9.165 -2.191,-15.883 -6.572,-20.153 -4.383,-4.27 -10.927,-6.405 -19.63,-6.405 -6.815,0 -11.28,0.283 -13.401,0.852 l 0,40.824 c 0.001,7.457 5.098,11.187 15.293,11.187"/>
      </g>
    </g>
  </g>
</svg>
