<svg viewBox="0 0 331.98996 293.97522">
  <g transform="matrix(1.25,0,0,-1.25,-542.66911,1227.1581)">
    <g transform="translate(675.4658,810.7988)">
        <path style="fill:#1b1615" d="m 0,0 c 0,2.169 0.212,3.79 0.635,4.864 0.422,1.074 1.18,1.611 2.274,1.611 l 1.391,0 c 2.496,0 4.459,-0.511 5.892,-1.532 1.433,-1.02 2.407,-2.752 2.924,-5.196 0.95,0 1.664,0.104 2.139,0.315 -0.496,3.318 -0.766,6.326 -0.806,9.023 0,0.12 -0.063,0.179 -0.187,0.179 C 10.392,8.934 5.645,8.768 0.019,8.768 l -5.462,0 c -5.586,0 -10.52,0.166 -14.802,0.496 -0.186,0 -0.28,-0.061 -0.28,-0.185 -0.206,-2.502 -0.732,-5.571 -1.581,-9.209 0.559,-0.206 1.283,-0.309 2.171,-0.309 0.579,2.524 1.571,4.308 2.976,5.35 1.406,1.042 3.203,1.564 5.395,1.564 l 3.101,0 c 1.116,0 1.896,-0.532 2.342,-1.596 0.443,-1.064 0.665,-2.628 0.665,-4.693 l 0,-24.41 c 0,-2.54 -0.358,-4.121 -1.075,-4.74 -0.718,-0.62 -2.396,-0.971 -5.036,-1.054 -0.163,-0.228 -0.245,-0.622 -0.245,-1.181 0,-0.56 0.062,-0.93 0.186,-1.112 4.169,0.091 7.146,0.136 8.929,0.136 1.636,0 4.577,-0.045 8.822,-0.136 0.227,0.182 0.335,0.552 0.324,1.112 -0.01,0.559 -0.118,0.953 -0.324,1.181 -2.661,0.103 -4.346,0.46 -5.057,1.07 C 0.356,-28.34 0,-26.764 0,-24.224 L 0,0 z m -40.475,-15.758 c 0,0.716 0.022,1.279 0.062,1.687 0.042,0.409 0.144,0.879 0.31,1.411 0.165,0.531 0.414,1.094 0.745,1.686 l 7.596,13.556 c 0.847,1.512 1.679,2.529 2.495,3.05 0.816,0.521 1.99,0.843 3.519,0.966 0.228,0.202 0.336,0.58 0.326,1.13 -0.011,0.552 -0.119,0.939 -0.326,1.165 -2.542,-0.09 -4.299,-0.136 -5.27,-0.136 -0.455,0 -2.378,0.046 -5.767,0.136 -0.207,-0.226 -0.31,-0.619 -0.31,-1.182 0,-0.561 0.103,-0.934 0.31,-1.112 0.744,-0.042 1.333,-0.119 1.767,-0.23 0.434,-0.113 0.769,-0.292 1.008,-0.537 0.237,-0.245 0.325,-0.572 0.264,-0.981 -0.063,-0.41 -0.259,-0.931 -0.59,-1.565 l -7.018,-13.125 c -0.271,-0.47 -0.501,-0.695 -0.689,-0.674 -0.188,0.02 -0.429,0.287 -0.722,0.797 l -7.413,12.849 c -0.787,1.35 -1.04,2.239 -0.76,2.668 0.278,0.429 1.296,0.695 3.054,0.798 0.204,0.201 0.31,0.579 0.31,1.13 0,0.551 -0.106,0.939 -0.31,1.164 -3.391,-0.09 -5.81,-0.135 -7.255,-0.135 -1.779,0 -3.939,0.045 -6.48,0.135 -0.166,-0.225 -0.248,-0.607 -0.248,-1.147 0,-0.541 0.103,-0.922 0.309,-1.147 0.993,-0.061 1.757,-0.184 2.295,-0.369 0.537,-0.183 1.101,-0.567 1.689,-1.15 0.59,-0.583 1.245,-1.477 1.97,-2.683 l 8.339,-13.861 c 0.559,-0.962 0.919,-1.728 1.087,-2.301 0.165,-0.572 0.247,-1.421 0.247,-2.545 l 0,-7.973 c 0,-2.514 -0.358,-4.079 -1.075,-4.692 -0.717,-0.613 -2.395,-0.961 -5.035,-1.043 -0.206,-0.228 -0.307,-0.622 -0.307,-1.181 0,-0.56 0.101,-0.93 0.309,-1.112 4.14,0.091 7.095,0.136 8.868,0.136 1.647,0 4.583,-0.045 8.806,-0.136 0.164,0.182 0.247,0.552 0.247,1.112 0,0.559 -0.083,0.953 -0.245,1.181 -2.642,0.103 -4.321,0.456 -5.037,1.059 -0.717,0.602 -1.075,2.162 -1.075,4.676 l 0,8.525 z m -49.041,-8.52 c 0,-2.517 -0.323,-4.082 -0.967,-4.696 -0.644,-0.614 -2.142,-0.962 -4.493,-1.044 -0.206,-0.228 -0.307,-0.622 -0.307,-1.181 0,-0.56 0.103,-0.93 0.31,-1.112 4.119,0.091 6.857,0.136 8.217,0.136 1.863,0 4.917,-0.045 9.162,-0.136 0.175,0.182 0.262,0.552 0.262,1.112 0,0.559 -0.103,0.953 -0.306,1.181 -2.684,0.143 -4.424,0.512 -5.224,1.11 -0.799,0.597 -1.197,2.122 -1.197,4.574 l 0,10.576 c 1.32,-0.444 3.032,-0.664 5.135,-0.664 2.667,0 4.996,0.41 6.991,1.23 1.995,0.821 3.513,1.902 4.556,3.241 1.042,1.341 1.809,2.724 2.299,4.146 0.492,1.424 0.738,2.884 0.738,4.379 0,1.125 -0.195,2.23 -0.586,3.313 -0.39,1.084 -1.056,2.215 -1.996,3.392 -0.941,1.177 -2.371,2.125 -4.293,2.845 -1.921,0.718 -4.211,1.078 -6.874,1.078 -0.476,0 -1.817,-0.073 -4.024,-0.217 -2.205,-0.145 -3.774,-0.217 -4.707,-0.217 -1.214,0 -3.933,0.041 -8.153,0.124 -0.207,-0.238 -0.31,-0.631 -0.31,-1.185 0,-0.552 0.101,-0.913 0.307,-1.078 2.351,-0.081 3.849,-0.423 4.493,-1.026 0.644,-0.604 0.967,-2.164 0.967,-4.681 l 0,-25.2 z m 10.964,31.187 c 2.618,0 4.732,-0.667 6.341,-2 1.608,-1.333 2.413,-3.823 2.413,-7.473 0,-3.3 -0.789,-5.72 -2.367,-7.257 -1.578,-1.538 -3.935,-2.307 -7.069,-2.307 -2.454,0 -4.062,0.102 -4.826,0.307 l 0,14.701 c 0.001,2.685 1.836,4.029 5.508,4.029" />
    </g>
    <g transform="translate(553.0861,779.6622)">
      <path style="fill:#e2232d" d="m 0,0 -0.001,0.003 0,0 L 0,0 z" />
    </g>
    <g transform="translate(558.6104,808.4976)">
      <path style="fill:#e2232d" d="m 0,0 c 0,1.56 -0.299,3.018 -0.898,4.359 -0.599,1.342 -1.499,2.564 -2.683,3.662 l -10e-4,10e-4 c -2.389,2.197 -5.299,3.307 -8.649,3.303 l -12.814,0 c -0.55,0.004 -1.065,-0.206 -1.468,-0.591 l -0.004,-0.005 -0.004,-0.003 c -0.345,-0.34 -0.539,-0.787 -0.582,-1.269 -0.024,-0.129 -0.038,-0.262 -0.036,-0.398 l 0,-37.055 c -0.007,-0.561 0.216,-1.082 0.62,-1.466 l -0.002,0 c 0.004,-0.004 0.008,-0.006 0.01,-0.009 0.003,-0.002 0.006,-0.006 0.008,-0.008 l 0.001,10e-4 c 0.384,-0.406 0.905,-0.627 1.467,-0.622 0.561,-0.005 1.08,0.217 1.465,0.622 l 0.001,-10e-4 c 0.003,0.002 0.005,0.005 0.008,0.008 0.002,0.002 0.006,0.005 0.009,0.008 l -0.001,0.001 c 0.405,0.384 0.626,0.905 0.621,1.466 l 0,16.67 8.778,0 8.628,-17.506 c 0.176,-0.366 0.428,-0.667 0.751,-0.868 0.323,-0.202 0.705,-0.295 1.113,-0.294 0.323,0 0.635,0.07 0.918,0.212 l 0.005,0.003 -0.004,-0.003 c 0.5,0.246 0.871,0.667 1.05,1.192 0.077,0.222 0.118,0.449 0.118,0.677 0,0.313 -0.078,0.622 -0.223,0.912 l 0.001,-0.003 -7.827,15.957 c 2.652,0.514 4.9,1.747 6.687,3.701 L -2.938,-7.348 C -0.989,-5.249 0.003,-2.775 0,0 m -12.039,-7.146 -10.892,0 0,14.319 10.7,0 C -9.978,7.17 -8.097,6.466 -6.505,5.043 L -6.504,5.042 C -5.71,4.337 -5.126,3.569 -4.736,2.734 -4.348,1.898 -4.153,0.992 -4.152,0 -4.153,-0.974 -4.343,-1.868 -4.722,-2.695 -5.103,-3.522 -5.675,-4.284 -6.45,-4.989 l -0.002,-0.002 0,0 c -1.535,-1.403 -3.372,-2.116 -5.587,-2.155" />
    </g>
    <g transform="translate(572.6345,817.6621)">
      <path style="fill:#e2232d" d="m 0,0 c 0.005,0.561 -0.217,1.081 -0.622,1.466 l 0.001,0.001 C -0.623,1.47 -0.626,1.472 -0.629,1.475 -0.632,1.478 -0.634,1.48 -0.637,1.484 L -0.638,1.482 C -1.022,1.887 -1.543,2.108 -2.103,2.104 -2.666,2.108 -3.186,1.887 -3.571,1.482 L -3.572,1.484 C -3.576,1.48 -3.577,1.476 -3.58,1.474 -3.582,1.471 -3.586,1.47 -3.588,1.467 L -3.587,1.466 C -3.99,1.082 -4.213,0.561 -4.208,0 l 0,-37.057 c -0.005,-0.562 0.218,-1.082 0.621,-1.466 l -10e-4,-10e-4 c 0.002,-0.002 0.006,-0.005 0.009,-0.008 0.002,-0.002 0.005,-0.006 0.007,-0.007 l 0.002,0 c 0.384,-0.404 0.904,-0.625 1.467,-0.62 0.56,-0.005 1.08,0.216 1.465,0.62 l 0.001,-10e-4 c 0.004,0.002 0.006,0.006 0.008,0.008 0.003,0.004 0.006,0.006 0.008,0.008 l -0.001,10e-4 c 0.405,0.385 0.627,0.905 0.622,1.466 L 0,0 z" />
    </g>
    <g transform="translate(474.9744,819.6451)">
      <path style="fill:#e2232d" d="M 0,0 C -0.421,0.427 -0.986,0.666 -1.583,0.661 -2.168,0.666 -2.722,0.424 -3.138,0 -3.554,-0.409 -3.776,-0.968 -3.771,-1.556 l 0,-30.956 -25.113,32.321 0.003,-0.003 c -0.21,0.274 -0.455,0.498 -0.739,0.652 -0.284,0.155 -0.603,0.235 -0.928,0.233 -0.268,0 -0.538,-0.051 -0.808,-0.143 l -0.003,-0.001 -10e-4,0 c -0.454,-0.158 -0.843,-0.422 -1.102,-0.793 -0.261,-0.371 -0.378,-0.825 -0.377,-1.31 l 0,-37.421 c -0.006,-0.586 0.229,-1.14 0.652,-1.543 l -0.001,-10e-4 c 0.003,-0.003 0.007,-0.005 0.01,-0.009 0.005,-0.004 0.007,-0.008 0.011,-0.012 l 0.001,0.001 c 0.403,-0.424 0.957,-0.658 1.544,-0.652 0.585,-0.006 1.14,0.229 1.542,0.652 l 0.002,-0.001 c 0.004,0.004 0.007,0.009 0.011,0.013 0.003,0.003 0.007,0.005 0.009,0.008 l -0.001,10e-4 c 0.423,0.402 0.658,0.956 0.653,1.543 l 0,30.955 25.103,-32.346 0.051,-0.05 10e-4,-0.002 0.029,-0.028 c 0.055,-0.055 0.084,-0.084 0.084,-0.084 l -0.002,0.002 c 0.001,-10e-4 0.029,-0.03 0.087,-0.087 l 0.035,-0.036 0.042,-0.028 0.049,-0.034 0.002,-0.002 0.023,-0.022 0.037,-0.025 c 0.065,-0.044 0.134,-0.081 0.205,-0.118 l 0.044,-0.031 0.074,-0.074 0.115,-0.038 c 0.04,-0.014 0.11,-0.04 0.202,-0.076 l 0.03,-0.012 0.146,-0.036 0.02,-0.006 0.02,-0.003 c 0.141,-0.023 0.283,-0.035 0.426,-0.035 0.128,0 0.26,0.012 0.396,0.035 0.032,0.005 0.058,0.01 0.083,0.016 l 0.086,0.025 c 0.08,0.02 0.155,0.041 0.225,0.065 l 0.032,0.011 0.144,0.072 -0.002,0.004 c 0.08,0.032 0.159,0.067 0.229,0.114 l 0.085,0.056 0.012,0.008 0.011,0.008 0.077,0.061 0.017,0.015 0.06,0.048 0.023,0.018 0.02,0.02 c 0.056,0.057 0.093,0.093 0.112,0.112 0.069,0.069 0.126,0.143 0.179,0.221 0.036,0.054 0.063,0.103 0.091,0.155 0.061,0.08 0.11,0.165 0.139,0.251 l 0.001,0.003 0,10e-4 0.028,0.071 0.002,0.003 0,0.002 c 0.045,0.094 0.068,0.173 0.093,0.268 l 0,0 c 0.015,0.051 0.027,0.108 0.035,0.171 0.022,0.086 0.038,0.176 0.038,0.268 l 0,0.114 0,0.014 0,37.407 C 0.638,-0.967 0.416,-0.409 0,0 z" />
    </g>
    <g transform="translate(475.0027,779.1417)">
      <path style="fill:#e2232d" d="m 0,0 -0.001,-0.001 c 0,0 -0.001,-0.001 -0.001,-0.002 L 0,0 z" />
    </g>
    <g transform="translate(515.2579,787.7073)">
      <path style="fill:#e2232d" d="m 0,0 c -3.234,-3.226 -7.072,-4.818 -11.629,-4.823 -4.558,0.005 -8.396,1.597 -11.629,4.823 -3.227,3.232 -4.818,7.071 -4.823,11.629 0.005,4.557 1.596,8.396 4.823,11.629 l 10e-4,0.001 c 3.233,3.244 7.071,4.845 11.628,4.85 4.556,-0.005 8.394,-1.606 11.628,-4.85 L 0.001,23.257 C 3.246,20.023 4.846,16.186 4.851,11.629 4.846,7.071 3.246,3.234 0.001,0.001 L 0,0 z m 3.138,26.396 c -4.06,4.068 -9.02,6.122 -14.767,6.117 -5.747,0.005 -10.708,-2.049 -14.768,-6.117 -4.067,-4.059 -6.122,-9.02 -6.117,-14.767 -0.005,-5.747 2.05,-10.708 6.117,-14.767 4.06,-4.068 9.021,-6.123 14.768,-6.117 5.747,-0.006 10.707,2.049 14.767,6.117 4.068,4.059 6.122,9.02 6.117,14.767 0.005,5.747 -2.049,10.708 -6.117,14.767" />
    </g>
    <g transform="scale(1,-1)" style="fill:#000000">
            <path d="m 445.44817,-755.56663 c 0,0.12135 0.0413,0.22572 0.12378,0.31309 0.0874,0.0825 0.18931,0.12378 0.30581,0.12378 0.12135,0 0.22571,-0.0413 0.31309,-0.12378 0.0825,-0.0874 0.12378,-0.19174 0.12378,-0.31309 l 0,-9.13787 2.87606,0 c 0.12135,1e-5 0.22328,-0.0412 0.30581,-0.12378 0.0874,-0.0825 0.13105,-0.18444 0.13106,-0.3058 -1e-5,-0.12135 -0.0437,-0.22328 -0.13106,-0.30581 -0.0825,-0.0874 -0.18446,-0.13105 -0.30581,-0.13106 l -6.61858,0 c -0.12135,1e-5 -0.22572,0.0437 -0.31309,0.13106 -0.0825,0.0825 -0.12378,0.18446 -0.12378,0.30581 0,0.12136 0.0413,0.22329 0.12378,0.3058 0.0874,0.0825 0.19174,0.12379 0.31309,0.12378 l 2.87606,0 0,9.13787" style="fill:#010000" />
            <path d="m 460.37035,-765.10496 c 0,-0.12134 -0.0437,-0.22328 -0.13106,-0.30581 -0.0825,-0.0874 -0.18446,-0.13105 -0.30581,-0.13106 -0.12135,10e-6 -0.22329,0.0437 -0.30581,0.13106 -0.0874,0.0825 -0.13106,0.18447 -0.13106,0.30581 l 0,9.53833 c 0,0.12135 0.0437,0.22329 0.13106,0.30581 0.0825,0.0874 0.18446,0.13106 0.30581,0.13106 0.12135,0 0.22329,-0.0437 0.30581,-0.13106 0.0874,-0.0825 0.13106,-0.18446 0.13106,-0.30581 l 0,-9.53833" style="fill:#010000" />
            <path d="m 479.07146,-755.28267 c 0.0145,0.0146 0.0291,0.0291 0.0437,0.0437 0.0146,0.01 0.0243,0.017 0.0291,0.0218 0.0145,0.01 0.0315,0.0194 0.051,0.0291 0.0145,0.01 0.0243,0.017 0.0291,0.0218 0.0145,0.005 0.034,0.0121 0.0582,0.0218 0.0194,0.005 0.0291,0.007 0.0291,0.007 0.0291,0.005 0.0582,0.007 0.0874,0.007 l 0,0 c 0.0243,0 0.051,-0.002 0.0801,-0.007 0.005,0 0.0146,-0.002 0.0291,-0.007 0.0194,-0.005 0.0364,-0.01 0.051,-0.0146 0.01,-0.005 0.0194,-0.01 0.0291,-0.0146 0.0146,-0.005 0.0291,-0.0121 0.0437,-0.0218 0.01,-0.005 0.017,-0.01 0.0218,-0.0146 0.0194,-0.0146 0.0243,-0.0194 0.0146,-0.0146 -0.01,0.01 -0.002,0.005 0.0218,-0.0146 0.0145,-0.0146 0.0243,-0.0243 0.0291,-0.0291 0.01,-0.01 0.0194,-0.0218 0.0291,-0.0364 0.01,-0.0146 0.017,-0.0267 0.0218,-0.0364 0.01,-0.01 0.017,-0.0218 0.0218,-0.0364 0.005,-0.0146 0.01,-0.0267 0.0146,-0.0364 0.005,-0.01 0.01,-0.0243 0.0146,-0.0437 0.005,-0.0146 0.007,-0.0267 0.007,-0.0364 0.005,-0.0146 0.007,-0.0291 0.007,-0.0437 -1e-5,-0.0291 -1e-5,-0.0388 0,-0.0291 l 0,-9.5893 c -1e-5,-0.12134 -0.0413,-0.22328 -0.12378,-0.30581 -0.0874,-0.0874 -0.19175,-0.13105 -0.31309,-0.13106 -0.11651,10e-6 -0.21844,0.0437 -0.30581,0.13106 -0.0825,0.0825 -0.12379,0.18447 -0.12378,0.30581 l 0,8.3151 -6.66955,-8.5845 c -0.12621,-0.16503 -0.28882,-0.21357 -0.48784,-0.14562 -0.19416,0.068 -0.29124,0.20631 -0.29124,0.41502 l 0,9.5893 c 0,0.12135 0.0437,0.22329 0.13106,0.30581 0.0825,0.0874 0.18445,0.13106 0.30581,0.13106 0.12135,0 0.22328,-0.0437 0.30581,-0.13106 0.0874,-0.0825 0.13105,-0.18446 0.13106,-0.30581 l 0,-8.31509 6.66226,8.58449 c 0,0 0.002,0.002 0.007,0.007 0.005,0.005 0.007,0.007 0.007,0.007" style="fill:#010000" />
            <path d="m 498.06381,-765.48358 c -0.0922,-0.0728 -0.19903,-0.10193 -0.32037,-0.0874 -0.11651,0.01 -0.21359,0.0631 -0.29125,0.16018 l -3.34206,4.17939 -3.33477,-4.17939 c -0.0777,-0.0971 -0.17718,-0.15047 -0.29853,-0.16018 -0.1165,-0.0146 -0.22086,0.0146 -0.31309,0.0874 -0.0971,0.0777 -0.1529,0.17476 -0.16747,0.29125 -0.01,0.12136 0.0219,0.22815 0.0947,0.32037 l 3.58961,4.49248 0,4.81285 c 0,0.12135 0.0413,0.22329 0.12378,0.30581 0.0874,0.0874 0.18931,0.13106 0.30581,0.13106 0.12135,0 0.22571,-0.0437 0.31309,-0.13106 0.0825,-0.0825 0.12378,-0.18446 0.12378,-0.30581 l 0,-4.81285 3.58962,-4.49248 c 0.0728,-0.0922 0.10435,-0.19901 0.0947,-0.32037 -0.0146,-0.11649 -0.0704,-0.21357 -0.16746,-0.29125" style="fill:#010000" />
            <path d="m 533.67485,-765.57095 c -0.11166,-0.0388 -0.22088,-0.0315 -0.32766,0.0218 -0.11165,0.0534 -0.18689,0.13592 -0.22571,0.24756 l -2.95616,8.41703 -2.95615,-8.41703 c 0.01,0.0146 0.007,0.007 -0.007,-0.0218 -0.005,-0.0146 -0.0121,-0.0291 -0.0218,-0.0437 -0.005,-0.01 -0.0122,-0.0194 -0.0219,-0.0291 -0.005,-0.0145 -0.0121,-0.0267 -0.0218,-0.0364 -0.01,-0.01 -0.0194,-0.0194 -0.0291,-0.0291 -0.01,-0.01 -0.0194,-0.0194 -0.0291,-0.0291 -0.0146,-0.01 -0.0267,-0.0194 -0.0364,-0.0291 -0.01,-0.005 -0.0218,-0.0121 -0.0364,-0.0218 -0.01,-0.005 -0.0219,-0.01 -0.0364,-0.0146 -0.005,-0.005 -0.01,-0.007 -0.0146,-0.007 -0.005,-0.005 -0.007,-0.007 -0.007,-0.007 0.005,0.005 -0.002,0.005 -0.0218,0 -0.01,-0.005 -0.0243,-0.01 -0.0437,-0.0146 -0.0194,10e-6 -0.0316,-0.002 -0.0364,-0.007 -0.01,10e-6 -0.0243,10e-6 -0.0437,0 -0.0194,10e-6 -0.034,10e-6 -0.0437,0 -0.01,0.005 -0.0243,0.007 -0.0437,0.007 -0.0146,0.005 -0.0291,0.01 -0.0437,0.0146 -0.0194,0.005 -0.0243,0.005 -0.0146,0 0.0194,-0.005 0.0121,1e-5 -0.0218,0.0146 -0.0146,0.005 -0.0267,0.01 -0.0364,0.0146 -0.0146,0.005 -0.0291,0.0122 -0.0437,0.0218 -0.01,0.01 -0.0194,0.0194 -0.0291,0.0291 -0.01,0.01 -0.0194,0.0194 -0.0291,0.0291 -0.01,0.005 -0.0194,0.0146 -0.0291,0.0291 -0.01,0.01 -0.0194,0.0218 -0.0291,0.0364 -0.005,0.01 -0.0122,0.0194 -0.0218,0.0291 -0.005,0.0146 -0.01,0.0291 -0.0146,0.0437 -0.0146,0.0291 -0.0194,0.0364 -0.0146,0.0218 l -2.95615,8.41703 -2.94888,-8.41703 c -0.0437,-0.11164 -0.11892,-0.19416 -0.22571,-0.24756 -0.10679,-0.0534 -0.21844,-0.0607 -0.33494,-0.0218 -0.11164,0.0388 -0.19416,0.11408 -0.24756,0.22571 -0.0534,0.1068 -0.0583,0.21845 -0.0146,0.33494 l 3.3639,9.58929 c 0,-0.005 0.005,0.005 0.0146,0.0291 0.005,0.01 0.007,0.017 0.007,0.0218 0.01,0.0194 0.0194,0.0364 0.0291,0.051 0.005,0.005 0.007,0.007 0.007,0.007 0,0.005 0.002,0.007 0.007,0.007 0.0146,0.0194 0.0316,0.0388 0.051,0.0583 -0.005,-0.005 -10e-6,0 0.0146,0.0146 0.0146,0.01 0.0291,0.0194 0.0437,0.0291 0.005,0.005 0.0121,0.01 0.0218,0.0146 0.0194,0.01 0.0388,0.0194 0.0582,0.0291 0,0 0.002,0 0.007,0 0,0 0.002,0.002 0.007,0.007 -0.005,-0.005 -0.005,-0.005 0,0 0.0146,0.005 0.0315,0.01 0.051,0.0146 0.0194,0 0.0267,0 0.0218,0 0.0243,0.005 0.0461,0.007 0.0655,0.007 0.0243,0 0.0485,-0.002 0.0728,-0.007 -0.005,0 0.002,0 0.0218,0 0.0194,-0.005 0.034,-0.01 0.0437,-0.0146 0.01,-0.005 0.0121,-0.005 0.007,0 0.005,-0.005 0.007,-0.007 0.007,-0.007 0.005,0 0.007,0 0.007,0 0.0194,-0.01 0.0388,-0.0194 0.0583,-0.0291 0.005,-0.005 0.0121,-0.01 0.0218,-0.0146 0.0146,-0.01 0.0291,-0.0194 0.0437,-0.0291 0.0146,-0.0146 0.0194,-0.0194 0.0146,-0.0146 0.0194,-0.0194 0.0364,-0.0388 0.051,-0.0583 0,0 0.002,-0.002 0.007,-0.007 0,0 0,-0.002 0,-0.007 0.0146,-0.0146 0.0267,-0.0316 0.0364,-0.051 -10e-6,-0.005 0.002,-0.0121 0.007,-0.0218 0.01,-0.0243 0.0146,-0.034 0.0146,-0.0291 l 2.95616,-8.41703 2.95615,8.41703 c -10e-6,-0.005 0.002,0.005 0.007,0.0291 0.01,0.01 0.0145,0.017 0.0146,0.0218 0.01,0.0194 0.0194,0.0364 0.0291,0.051 -10e-6,0.005 0.002,0.007 0.007,0.007 -10e-6,0.005 -10e-6,0.007 0,0.007 0.0194,0.0194 0.0388,0.0388 0.0583,0.0583 -0.005,-0.005 -1e-5,0 0.0146,0.0146 0.0145,0.01 0.0291,0.0194 0.0437,0.0291 0.005,0.005 0.0121,0.01 0.0218,0.0146 0.0145,0.01 0.034,0.0194 0.0583,0.0291 -10e-6,0 -10e-6,0 0,0 0.005,0 0.007,0.002 0.007,0.007 -10e-6,-0.005 0.002,-0.005 0.007,0 0.0145,0.005 0.0315,0.01 0.051,0.0146 0.0194,0 0.0267,0 0.0218,0 0.0243,0.005 0.0461,0.007 0.0655,0.007 0.0243,0 0.0485,-0.002 0.0728,-0.007 -0.005,0 0.002,0 0.0218,0 0.0194,-0.005 0.034,-0.01 0.0437,-0.0146 0.005,-0.005 0.007,-0.005 0.007,0 -1e-5,-0.005 0.002,-0.007 0.007,-0.007 0.005,0 0.007,0 0.007,0 0.0194,-0.01 0.0364,-0.0194 0.051,-0.0291 0.01,-0.005 0.017,-0.01 0.0218,-0.0146 0.0194,-0.01 0.0364,-0.0194 0.051,-0.0291 0.0145,-0.0146 0.0194,-0.0194 0.0146,-0.0146 0.0194,-0.0194 0.0364,-0.0388 0.051,-0.0583 -10e-6,0 0.002,-0.002 0.007,-0.007 -10e-6,0 -10e-6,-0.002 0,-0.007 0.0145,-0.0146 0.0267,-0.0316 0.0364,-0.051 -10e-6,-0.005 0.002,-0.0121 0.007,-0.0218 0.01,-0.0243 0.0145,-0.034 0.0146,-0.0291 l 3.3639,-9.58929 c 0.0388,-0.11649 0.034,-0.22814 -0.0146,-0.33494 -0.0534,-0.11163 -0.13836,-0.18687 -0.25484,-0.22571" style="fill:#010000" />
            <path d="m 550.27898,-755.12976 c 0.12134,0 0.22328,-0.0437 0.30581,-0.13106 0.0874,-0.0825 0.13105,-0.18446 0.13106,-0.30581 -1e-5,-0.12135 -0.0437,-0.22329 -0.13106,-0.30581 -0.0825,-0.0874 -0.18447,-0.13106 -0.30581,-0.13106 l -5.34438,0 0,-3.91727 3.99736,0 c 0.12135,10e-6 0.22329,-0.0437 0.30581,-0.13106 0.0874,-0.0825 0.13106,-0.18445 0.13106,-0.30581 0,-0.12135 -0.0437,-0.22328 -0.13106,-0.30581 -0.0825,-0.0874 -0.18446,-0.13105 -0.30581,-0.13106 l -3.99736,0 0,-3.91727 5.34438,0.0146 0,0 c 0.12134,1e-5 0.22328,-0.0412 0.30581,-0.12378 0.0874,-0.0874 0.13105,-0.19173 0.13106,-0.31309 -1e-5,-0.11649 -0.0437,-0.21843 -0.13106,-0.30581 -0.0825,-0.0874 -0.18447,-0.13105 -0.30581,-0.13106 l -5.78125,-0.0146 c -0.1165,-0.005 -0.21843,0.0389 -0.30581,0.13106 -0.0874,0.0825 -0.13106,0.18447 -0.13106,0.30581 l 0,9.58202 c 0,0.12135 0.0437,0.22329 0.13106,0.30581 0.0825,0.0874 0.18446,0.13106 0.30581,0.13106 l 5.78125,0" style="fill:#010000" />
            <path d="m 561.95376,-759.89893 2.91975,0 c 0.0534,10e-6 0.10193,10e-6 0.14562,0 0.0194,10e-6 0.0388,10e-6 0.0582,0 0.61161,10e-6 1.12858,0.18689 1.55089,0.56065 0.4223,0.36892 0.63345,0.82521 0.63346,1.36886 -10e-6,0.54367 -0.21359,1.00723 -0.64074,1.39071 -0.43202,0.38347 -0.95141,0.57521 -1.55817,0.57521 l -3.10906,0 0,-3.89543 m 0,-4.791 2.91975,-0.0146 c 0.61646,1e-5 1.13585,0.18447 1.55817,0.55337 0.4223,0.37378 0.63345,0.83006 0.63346,1.36886 -1e-5,0.55338 -0.21359,1.02665 -0.64074,1.41983 -0.42717,0.39319 -0.94413,0.58978 -1.55089,0.58977 l -2.91975,0.007 0,-3.92455 m 3.10906,9.56017 c 0.84946,0 1.57272,-0.27911 2.16979,-0.83733 0.6019,-0.55337 0.90285,-1.22081 0.90286,-2.00233 -1e-5,-0.51938 -0.13835,-0.99751 -0.41503,-1.43439 -0.27183,-0.42715 -0.64317,-0.76209 -1.11401,-1.0048 0.41259,-0.26211 0.73539,-0.59947 0.96839,-1.01208 0.2427,-0.4223 0.36405,-0.87616 0.36406,-1.36158 -1e-5,-0.7815 -0.29611,-1.44409 -0.8883,-1.98776 -0.59221,-0.53879 -1.3179,-0.80819 -2.17707,-0.80821 l -3.35662,0.0146 c -0.12135,10e-6 -0.22572,0.0437 -0.31309,0.13106 -0.0825,0.0825 -0.12378,0.18446 -0.12378,0.30581 l 0,9.56017 c 0,0.12135 0.0437,0.22329 0.13106,0.30581 0.0825,0.0874 0.18446,0.13106 0.30581,0.13106 l 3.54593,0" style="fill:#010000" />
            <path d="m 592.33692,-758.44269 2.30085,-5.54825 2.30085,5.54825 -4.6017,0 m -1.82757,3.27652 c 0.0534,0.0243 0.10921,0.0364 0.16746,0.0364 0.19417,0 0.32766,-0.0898 0.40047,-0.2694 l 0.90286,-2.16979 5.31526,0 0.90286,2.16979 c 0.0728,0.1796 0.20629,0.2694 0.40046,0.2694 0.0582,0 0.11407,-0.0121 0.16747,-0.0364 0.11164,-0.0437 0.1893,-0.12135 0.233,-0.23299 0.0485,-0.11165 0.0485,-0.22329 0,-0.33494 l -1.01208,-2.43919 0,-0.007 -2.94888,-7.1137 c -0.01,-0.0243 -0.0218,-0.051 -0.0364,-0.0801 -1e-5,0.005 -0.01,-0.005 -0.0291,-0.0291 -0.0146,-0.0194 -0.0243,-0.0315 -0.0291,-0.0364 -0.005,10e-6 -0.017,-0.01 -0.0364,-0.0291 -0.0194,-0.0145 -0.0291,-0.0218 -0.0291,-0.0218 -0.0485,-0.034 -0.10194,-0.0558 -0.16019,-0.0655 0.005,10e-6 -0.007,10e-6 -0.0364,0 -0.0243,-0.005 -0.0388,-0.007 -0.0437,-0.007 -0.005,10e-6 -0.0219,0.002 -0.051,0.007 -0.0243,10e-6 -0.0364,10e-6 -0.0364,0 -0.0534,0.01 -0.10437,0.0316 -0.15291,0.0655 0.005,-0.005 -0.005,0.002 -0.0291,0.0218 -0.0194,0.0146 -0.0316,0.0243 -0.0364,0.0291 -0.005,0.005 -0.0146,0.017 -0.0291,0.0364 -0.0194,0.0194 -0.0291,0.0291 -0.0291,0.0291 -0.0146,0.0291 -0.0267,0.0558 -0.0364,0.0801 l -2.94888,7.1137 0,0.007 -1.01208,2.43919 c -0.0485,0.11165 -0.0485,0.22329 0,0.33494 0.0437,0.11164 0.12135,0.18931 0.233,0.23299" style="fill:#010000" />
            <path d="m 613.72478,-755.12976 c -1.44168,0 -2.67219,-0.51211 -3.69155,-1.53633 -1.02422,-1.01936 -1.53633,-2.24987 -1.53633,-3.69155 0,-1.44166 0.51211,-2.67461 1.53633,-3.69883 1.01936,-1.01935 2.24987,-1.52904 3.69155,-1.52905 1.18439,10e-6 2.24502,0.35922 3.18187,1.07762 0.0971,0.0777 0.15289,0.17475 0.16747,0.29124 0.0194,0.12136 -0.01,0.23058 -0.0874,0.32766 -0.0728,0.0971 -0.1699,0.15291 -0.29125,0.16746 -0.1165,0.0146 -0.22329,-0.0145 -0.32037,-0.0874 -0.78152,-0.6019 -1.66496,-0.90286 -2.65034,-0.90287 -1.19897,10e-6 -2.22319,0.42717 -3.07265,1.28149 -0.84948,0.84948 -1.27421,1.87369 -1.27421,3.07265 0,1.19897 0.42473,2.22319 1.27421,3.07265 0.84946,0.84947 1.87368,1.27421 3.07265,1.27421 1.12615,0 2.10182,-0.37619 2.92703,-1.12858 0.0922,-0.0825 0.19901,-0.12135 0.32037,-0.1165 0.12134,0.005 0.22328,0.0534 0.30581,0.14562 0.0776,0.0874 0.11406,0.19174 0.10922,0.31309 -0.005,0.12136 -0.051,0.22329 -0.13835,0.30581 -0.99995,0.90772 -2.17465,1.36158 -3.52408,1.36158 m 3.31293,0 c -0.12136,0 -0.22573,-0.0437 -0.31309,-0.13106 -0.0825,-0.0825 -0.12379,-0.18446 -0.12378,-0.30581 l 0,-4.61626 -3.65515,0 c -0.12135,0 -0.22572,-0.0413 -0.31309,-0.12378 -0.0874,-0.0874 -0.13106,-0.19173 -0.13106,-0.31309 0,-0.12135 0.0437,-0.22328 0.13106,-0.30581 0.0874,-0.0874 0.19174,-0.13105 0.31309,-0.13106 l 4.09202,0 c 0.12134,1e-5 0.22571,0.0437 0.31309,0.13106 0.0825,0.0825 0.12377,0.18446 0.12378,0.30581 l 0,5.05313 c -10e-6,0.12135 -0.0413,0.22329 -0.12378,0.30581 -0.0874,0.0874 -0.19175,0.13106 -0.31309,0.13106" style="fill:#010000" />
            <path d="m 634.53742,-755.12976 c 0.12135,0 0.22329,-0.0437 0.30581,-0.13106 0.0874,-0.0825 0.13106,-0.18446 0.13106,-0.30581 0,-0.12135 -0.0437,-0.22329 -0.13106,-0.30581 -0.0825,-0.0874 -0.18446,-0.13106 -0.30581,-0.13106 l -5.34437,0 0,-3.91727 3.99736,0 c 0.12135,10e-6 0.22328,-0.0437 0.30581,-0.13106 0.0874,-0.0825 0.13105,-0.18445 0.13106,-0.30581 -1e-5,-0.12135 -0.0437,-0.22328 -0.13106,-0.30581 -0.0825,-0.0874 -0.18446,-0.13105 -0.30581,-0.13106 l -3.99736,0 0,-3.91727 5.34437,0.0146 0,0 c 0.12135,1e-5 0.22329,-0.0412 0.30581,-0.12378 0.0874,-0.0874 0.13106,-0.19173 0.13106,-0.31309 0,-0.11649 -0.0437,-0.21843 -0.13106,-0.30581 -0.0825,-0.0874 -0.18446,-0.13105 -0.30581,-0.13106 l -5.78124,-0.0146 c -0.1165,-0.005 -0.21844,0.0389 -0.30581,0.13106 -0.0874,0.0825 -0.13106,0.18447 -0.13106,0.30581 l 0,9.58202 c 0,0.12135 0.0437,0.22329 0.13106,0.30581 0.0825,0.0874 0.18445,0.13106 0.30581,0.13106 l 5.78124,0" style="fill:#010000" />
            <path d="m 652.88904,-755.28267 c 0.0145,0.0146 0.0291,0.0291 0.0437,0.0437 0.0146,0.01 0.0243,0.017 0.0291,0.0218 0.0145,0.01 0.0315,0.0194 0.051,0.0291 0.0145,0.01 0.0243,0.017 0.0291,0.0218 0.0146,0.005 0.034,0.0121 0.0583,0.0218 0.0194,0.005 0.0291,0.007 0.0291,0.007 0.0291,0.005 0.0582,0.007 0.0874,0.007 l 0,0 c 0.0243,0 0.051,-0.002 0.0801,-0.007 0.005,0 0.0145,-0.002 0.0291,-0.007 0.0194,-0.005 0.0364,-0.01 0.051,-0.0146 0.01,-0.005 0.0194,-0.01 0.0291,-0.0146 0.0146,-0.005 0.0291,-0.0121 0.0437,-0.0218 0.01,-0.005 0.017,-0.01 0.0218,-0.0146 0.0194,-0.0146 0.0243,-0.0194 0.0146,-0.0146 -0.01,0.01 -0.002,0.005 0.0218,-0.0146 0.0145,-0.0146 0.0243,-0.0243 0.0291,-0.0291 0.01,-0.01 0.0194,-0.0218 0.0291,-0.0364 0.01,-0.0146 0.017,-0.0267 0.0218,-0.0364 0.01,-0.01 0.017,-0.0218 0.0218,-0.0364 0.005,-0.0146 0.01,-0.0267 0.0146,-0.0364 0.005,-0.01 0.01,-0.0243 0.0146,-0.0437 0.005,-0.0146 0.007,-0.0267 0.007,-0.0364 0.005,-0.0146 0.007,-0.0291 0.007,-0.0437 -10e-6,-0.0291 -10e-6,-0.0388 0,-0.0291 l 0,-9.5893 c -10e-6,-0.12134 -0.0413,-0.22328 -0.12378,-0.30581 -0.0874,-0.0874 -0.19175,-0.13105 -0.31309,-0.13106 -0.11651,10e-6 -0.21845,0.0437 -0.30581,0.13106 -0.0825,0.0825 -0.12379,0.18447 -0.12378,0.30581 l 0,8.3151 -6.66955,-8.5845 c -0.12621,-0.16503 -0.28882,-0.21357 -0.48784,-0.14562 -0.19416,0.068 -0.29125,0.20631 -0.29124,0.41502 l 0,9.5893 c -10e-6,0.12135 0.0437,0.22329 0.13106,0.30581 0.0825,0.0874 0.18445,0.13106 0.30581,0.13106 0.12135,0 0.22328,-0.0437 0.30581,-0.13106 0.0874,-0.0825 0.13105,-0.18446 0.13106,-0.30581 l 0,-8.31509 6.66226,8.58449 c -10e-6,0 0.002,0.002 0.007,0.007 0.005,0.005 0.007,0.007 0.007,0.007" style="fill:#010000" />
            <path d="m 669.26016,-755.12976 c 1.35429,0 2.52899,-0.45386 3.52409,-1.36158 0.0922,-0.0825 0.14076,-0.18445 0.14562,-0.30581 0.005,-0.12135 -0.034,-0.22571 -0.1165,-0.31309 -0.0825,-0.0922 -0.18446,-0.14077 -0.30581,-0.14562 -0.12136,-0.005 -0.22572,0.034 -0.31309,0.1165 -0.83006,0.75239 -1.80816,1.12858 -2.93431,1.12858 -1.19897,0 -2.22318,-0.42474 -3.07265,-1.27421 -0.84947,-0.84946 -1.2742,-1.87368 -1.2742,-3.07265 0,-1.20381 0.42473,-2.23046 1.2742,-3.07993 0.84947,-0.84946 1.87368,-1.2742 3.07265,-1.27421 0.99024,10e-6 1.87611,0.29854 2.65763,0.89559 0.0922,0.0777 0.19901,0.1068 0.32037,0.0874 0.12134,-0.0145 0.21843,-0.0704 0.29125,-0.16747 0.0728,-0.0922 0.10192,-0.19901 0.0874,-0.32037 -0.0146,-0.12134 -0.0704,-0.21842 -0.16747,-0.29124 -0.93685,-0.72326 -1.9999,-1.08489 -3.18915,-1.0849 -1.44167,10e-6 -2.67219,0.51212 -3.69155,1.53633 -1.02422,1.01937 -1.53632,2.25231 -1.53632,3.69883 0,1.44168 0.5121,2.67219 1.53632,3.69155 1.01936,1.02422 2.24988,1.53633 3.69155,1.53633" style="fill:#010000" />
            <path d="m 690.53879,-765.48358 c -0.0922,-0.0728 -0.19902,-0.10193 -0.32037,-0.0874 -0.1165,0.01 -0.21359,0.0631 -0.29124,0.16018 l -3.34206,4.17939 -3.33477,-4.17939 c -0.0777,-0.0971 -0.17718,-0.15047 -0.29853,-0.16018 -0.1165,-0.0146 -0.22087,0.0146 -0.31309,0.0874 -0.0971,0.0777 -0.15291,0.17476 -0.16747,0.29125 -0.01,0.12136 0.0218,0.22815 0.0947,0.32037 l 3.58961,4.49248 0,4.81285 c 0,0.12135 0.0413,0.22329 0.12378,0.30581 0.0874,0.0874 0.18931,0.13106 0.30581,0.13106 0.12135,0 0.22571,-0.0437 0.31309,-0.13106 0.0825,-0.0825 0.12377,-0.18446 0.12378,-0.30581 l 0,-4.81285 3.58962,-4.49248 c 0.0728,-0.0922 0.10435,-0.19901 0.0947,-0.32037 -0.0146,-0.11649 -0.0704,-0.21357 -0.16747,-0.29125" style="fill:#010000"/>
          </g>
    <g transform="translate(592.6746,934.1583)">
      <path d="M 0,0 -5.689,-8.761 9.288,-18.487 14.977,-9.726 0,0 z" style="fill:#e2202e" />
    </g>
    <g transform="translate(593.405,935.7213)">
      <path d="m 0,0 c -0.16,-0.309 -0.21,-0.638 -0.192,-0.98 -0.09,0.227 -0.179,0.445 -0.262,0.645 -2.279,5.492 -4.295,11.678 -6.427,16.304 -1.081,2.347 -1.651,3.385 -3.327,5.083 -1.331,1.349 -3.129,2.516 -5.602,2.313 -2.866,-0.234 -6.632,-1.006 -8.521,0.463 -2.55,1.987 -5.139,4.032 -6.984,5.754 -9.553,8.921 -21.217,10.179 -33.064,4.863 -11.022,-4.946 -16.949,-13.961 -17.105,-26.074 -0.106,-8.284 2.913,-14.589 7.902,-19.473 3.131,-3.064 7.057,-5.483 11.496,-7.619 0.769,-0.37 2.289,-1.114 4.241,-1.708 0.371,-0.113 0.736,-0.215 1.104,-0.323 -0.752,-0.265 -1.48,-0.341 -2.169,-0.119 -14.789,-27.387 0.126,-68.106 39.191,-67.432 30.737,0.531 59.529,57.13 -6.463,73.341 -6.144,1.385 -12.209,2.739 -18.171,4.363 l 14.608,-3.116 c 0,0 21.39,3.951 32.697,-4.696 C 21.491,-30.518 23.703,-50.922 18.133,-64.01 13.554,-74.77 7.27,-81.673 5.058,-83.685 c -0.4,-0.364 -0.423,-0.8 -0.104,-1.172 0.32,-0.373 0.859,-0.214 1.293,0.065 12.541,8.14 22.211,23.322 22.369,40.006 C 28.525,-24.566 18.258,-7.159 0,0 m -16.646,-35.014 c 1.658,-1.269 3.366,-2.582 4.774,-4.306 6.823,-8.351 6.157,-20.185 -1.486,-26.432 -7.646,-6.247 -24.349,-1.787 -30.71,9.562 -6.137,10.947 -1.757,24.819 1.971,30.874 -0.036,0.267 -0.075,0.524 -0.113,0.779 0.659,-0.181 1.319,-0.365 1.981,-0.56 6.819,-2.004 17.233,-5.058 23.583,-9.917 m -32.912,25.918 c -2.92,0.898 -5.814,1.879 -8.674,3 -2.174,0.852 -4.026,2.025 -5.455,3.518 -3.448,3.601 -4.782,8.726 -4.164,14.282 1.003,9.037 9.919,15.981 19.121,14.719 5.064,-0.698 9.75,-2.63 13.242,-6.045 1.431,-1.397 2.598,-2.925 3.636,-4.681 1.638,-2.767 1.14,-5.583 1.132,-8.463 -0.007,-2.292 1.142,-3.893 2.416,-5.132 1.313,-1.213 4.528,-2.81 8.202,-4.384 -4.754,1.909 -8.628,3.527 -8.809,3.707 -7.251,-1.679 -18.332,-8.963 -20.647,-10.521 m 58.637,-3.839 c -0.132,-0.278 -0.626,-0.504 -1.199,-0.487 -0.545,0.015 -2.103,0.443 -2.192,0.35 -0.091,-0.098 0.363,-1.467 0.317,-2.295 -0.014,-0.224 0.101,-0.512 -0.315,-0.744 -0.416,-0.23 -0.978,0.168 -1.352,0.657 -1.968,2.564 -5.42,5.846 -6.329,6.46 -0.505,-0.047 -4.568,1.428 -9.389,3.281 2.265,-0.829 4.262,-1.518 5.602,-1.957 2.193,-0.717 4.082,-1.226 5.743,0.442 0.963,0.967 0.933,2.489 0.584,3.968 0.42,-0.929 0.827,-1.847 0.644,-2.636 1.311,-1.905 4.743,-3.972 7.531,-6.275 0.277,-0.23 0.487,-0.488 0.355,-0.764" style="fill:#1b1615" />
    </g>
    <g transform="translate(593.6632,936.0925)">
      <path d="m 0,0 -0.794,0.311 c -2.12,5.237 -4.034,10.998 -6.066,15.409 -0.542,1.177 -0.963,2.044 -1.472,2.843 -0.507,0.798 -1.098,1.515 -1.951,2.378 -1.272,1.294 -3.03,2.482 -5.39,2.48 -0.195,0 -0.394,-0.008 -0.597,-0.025 -1.579,-0.13 -3.387,-0.411 -4.973,-0.41 -1.342,-0.004 -2.497,0.211 -3.21,0.774 -2.547,1.983 -5.13,4.025 -6.951,5.725 -5.887,5.501 -12.614,8.152 -19.676,8.149 -4.546,0 -9.226,-1.093 -13.918,-3.198 -5.581,-2.504 -9.9,-6.054 -12.834,-10.526 -2.936,-4.47 -4.48,-9.851 -4.558,-15.985 -0.001,-0.143 -0.002,-0.286 -0.002,-0.429 -0.006,-8.199 3.065,-14.524 8.05,-19.397 3.185,-3.117 7.158,-5.561 11.626,-7.71 0.597,-0.288 1.67,-0.809 3.05,-1.312 l -0.091,-0.169 c -3.813,-7.061 -5.67,-14.991 -5.67,-22.878 0.001,-11.392 3.874,-22.702 11.361,-31.18 7.485,-8.479 18.599,-14.102 32.972,-14.099 0.319,0 0.64,0.003 0.963,0.008 8.694,0.154 17.178,4.688 23.497,11.482 6.318,6.798 10.487,15.875 10.489,25.192 0.003,7.474 -2.7,15.096 -9.105,21.726 -6.404,6.632 -16.485,12.275 -31.236,15.899 l -0.116,-0.474 0.107,0.476 0,0 c -0.589,0.133 -1.175,0.265 -1.762,0.397 3.817,0.693 7.302,1.022 10.482,1.022 8.538,-0.002 14.959,-2.276 20.284,-5.749 12.717,-8.309 17.638,-20.522 17.643,-31.552 0,-4.87 -0.964,-9.504 -2.644,-13.45 -4.541,-10.679 -10.797,-17.546 -12.954,-19.506 -0.29,-0.26 -0.484,-0.614 -0.483,-0.996 -10e-4,-0.317 0.133,-0.616 0.337,-0.852 0.226,-0.27 0.569,-0.394 0.862,-0.388 0.412,0.005 0.761,0.171 1.062,0.361 l 0.002,0.001 c 12.671,8.228 22.425,23.536 22.59,40.41 l 0,0.002 0,0.004 C 28.841,-24.858 18.462,-7.235 0,0 m -26.716,-15.886 c 14.626,-3.593 24.53,-9.168 30.767,-15.63 6.237,-6.463 8.83,-13.81 8.833,-21.051 0.002,-9.022 -4.056,-17.892 -10.229,-24.53 -6.172,-6.641 -14.443,-11.031 -22.802,-11.172 -0.318,-0.006 -0.633,-0.008 -0.947,-0.008 -14.119,0.003 -24.928,5.493 -32.244,13.77 -7.313,8.277 -11.118,19.363 -11.118,30.537 0,7.489 1.728,15.006 5.223,21.747 l -0.012,0.027 0.09,0.132 0.071,0.146 0.023,-0.008 0.423,0.62 15.744,-4.128 -0.372,-0.629 0.011,-0.003 c -2.337,-4.04 -4.774,-10.852 -4.779,-18.084 0,-4.272 0.858,-8.691 3.122,-12.729 2.252,-4.017 5.756,-7.174 9.692,-9.33 3.938,-2.156 8.312,-3.317 12.342,-3.318 3.597,0.001 6.933,0.927 9.407,2.946 4.228,3.455 6.378,8.571 6.376,13.873 0,4.571 -1.592,9.291 -4.821,13.243 -1.454,1.779 -3.197,3.114 -4.854,4.384 -6.472,4.943 -16.917,7.987 -23.743,9.998 -5.85,1.72 -11.575,2.824 -17.61,4.667 -1.913,0.582 -3.404,1.31 -4.172,1.68 -4.412,2.122 -8.291,4.518 -11.367,7.529 -4.823,4.729 -7.753,10.748 -7.759,18.703 0,0.138 0.001,0.277 0.003,0.417 0.077,5.98 1.575,11.163 4.398,15.464 2.824,4.301 6.979,7.73 12.42,10.172 4.587,2.059 9.13,3.113 13.52,3.113 6.817,-0.002 13.276,-2.534 19.014,-7.887 1.869,-1.745 4.464,-3.794 7.017,-5.782 1.017,-0.782 2.378,-0.974 3.806,-0.978 1.694,10e-4 3.524,0.29 5.053,0.413 0.177,0.015 0.349,0.022 0.517,0.022 2.017,-10e-4 3.513,-0.994 4.699,-2.191 0.824,-0.835 1.357,-1.486 1.823,-2.218 0.466,-0.732 0.87,-1.558 1.409,-2.728 2.114,-4.584 4.132,-10.771 6.419,-16.286 0.509,-1.215 1.196,-3 1.191,-4.441 -0.003,-0.798 -0.195,-1.449 -0.667,-1.923 -0.742,-0.735 -1.45,-0.966 -2.289,-0.973 -0.86,-0.003 -1.855,0.286 -2.959,0.65 -2.508,0.82 -7.34,2.528 -11.93,4.392 -2.295,0.931 -4.53,1.903 -6.38,2.819 -1.844,0.911 -3.315,1.785 -4.033,2.452 -1.227,1.2 -2.262,2.654 -2.265,4.759 l 0,0.018 c 0.003,1.078 0.077,2.166 0.077,3.268 0.002,1.786 -0.2,3.629 -1.276,5.444 -1.056,1.787 -2.251,3.353 -3.714,4.782 -3.584,3.503 -8.374,5.47 -13.516,6.178 -0.752,0.103 -1.501,0.153 -2.245,0.153 -8.637,-0.008 -16.461,-6.712 -17.425,-15.3 -0.099,-0.891 -0.149,-1.772 -0.149,-2.639 -10e-4,-4.642 1.439,-8.893 4.445,-12.032 1.487,-1.553 3.401,-2.762 5.629,-3.634 10.37,-4.065 21.135,-6.411 32.113,-8.886 m -15.387,-10.137 0.199,0.324 c 0.373,-0.105 0.745,-0.206 1.117,-0.316 6.814,-1.997 17.198,-5.062 23.426,-9.837 1.658,-1.269 3.331,-2.559 4.693,-4.228 3.087,-3.778 4.602,-8.282 4.602,-12.628 -10e-4,-5.044 -2.036,-9.864 -6.02,-13.121 -2.247,-1.837 -5.357,-2.727 -8.792,-2.726 -3.843,-10e-4 -8.076,1.115 -11.875,3.198 -3.801,2.081 -7.166,5.123 -9.312,8.953 -2.166,3.864 -2.997,8.11 -2.998,12.254 -0.004,7.333 2.624,14.341 4.96,18.127 m 48.776,12.811 c -0.214,0.044 -0.426,0.089 -0.61,0.123 -0.189,0.034 -0.329,0.061 -0.486,0.063 l -0.136,-0.012 c -0.057,-0.016 -0.152,-0.024 -0.285,-0.155 -0.099,-0.11 -0.116,-0.197 -0.13,-0.254 l -0.013,-0.135 c 0.003,-0.155 0.03,-0.271 0.062,-0.436 0.098,-0.467 0.273,-1.208 0.27,-1.676 l -0.003,-0.099 0,0.003 -0.002,-0.073 c 0.001,-0.093 0.007,-0.155 0.006,-0.193 l -0.002,-0.035 -0.005,-0.006 -0.063,-0.042 -0.028,-0.005 c -0.036,-0.004 -0.154,0.028 -0.291,0.127 -0.137,0.095 -0.288,0.245 -0.411,0.406 -1.006,1.31 -2.371,2.781 -3.604,4.01 -0.617,0.614 -1.2,1.167 -1.69,1.608 -0.467,0.42 -0.831,0.723 -1.098,0.911 0.609,0.188 1.199,0.515 1.735,1.059 0.388,0.389 0.627,0.852 0.772,1.345 0.726,-1.024 1.916,-2.009 3.272,-3.045 1.381,-1.05 2.93,-2.139 4.304,-3.274 0.091,-0.075 0.163,-0.148 0.196,-0.195 l 0.004,-0.007 c -0.031,-0.028 -0.092,-0.072 -0.195,-0.109 -0.127,-0.048 -0.296,-0.081 -0.478,-0.081 l -0.05,10e-4 10e-4,0 c -0.158,10e-4 -0.621,0.087 -1.042,0.176 M -29.202,1.445 c -8.2,-1.899 -14.947,-5.405 -20.316,-9.951 l -0.588,-0.497 c -2.818,0.873 -5.61,1.826 -8.369,2.907 -2.121,0.831 -3.909,1.969 -5.281,3.402 -2.806,2.93 -4.174,6.913 -4.176,11.36 0,0.83 0.048,1.675 0.144,2.532 0.882,8.054 8.323,14.443 16.459,14.435 0.7,0 1.406,-0.047 2.113,-0.144 4.986,-0.686 9.569,-2.584 12.969,-5.91 1.398,-1.366 2.537,-2.856 3.556,-4.582 0.952,-1.608 1.141,-3.228 1.142,-4.949 0,-1.058 -0.074,-2.146 -0.077,-3.264 l 0,-0.022 c -0.003,-2.368 1.163,-4.06 2.424,-5.317 M 5.806,-84.836 C 5.604,-84.97 5.377,-85.048 5.27,-85.043 l -0.125,0.05 c -0.086,0.103 -0.102,0.17 -0.102,0.219 10e-4,0.056 0.02,0.142 0.165,0.278 2.266,2.065 8.577,9.002 13.194,19.844 1.734,4.074 2.721,8.832 2.722,13.83 0.005,11.312 -5.082,23.879 -18.084,32.365 -5.461,3.568 -12.105,5.91 -20.815,5.908 -3.306,0 -6.917,-0.345 -10.869,-1.075 -0.639,-0.118 -1.152,-0.326 -1.43,-0.454 -2.17,0.301 -17.393,3.983 -18.932,4.752 l 1.557,1.204 c 4.868,3.782 10.789,6.738 17.871,8.464 l 0.009,0.003 c 0.207,0.037 0.782,0.142 1.223,0.221 1.6,-0.992 12.339,-6.214 20.047,-8.556 0.49,-0.167 3.68,-1.233 5.113,-1.238 0.228,-0.151 0.584,-0.407 0.871,-0.712 0.207,-0.156 0.53,-0.425 0.918,-0.775 1.425,-1.282 3.729,-3.605 5.172,-5.487 0.176,-0.229 0.384,-0.441 0.624,-0.61 0.239,-0.166 0.515,-0.3 0.849,-0.304 0.165,0 0.343,0.04 0.501,0.129 0.2,0.11 0.365,0.265 0.459,0.448 0.096,0.183 0.11,0.363 0.11,0.483 -10e-4,0.096 -0.007,0.164 -0.006,0.193 l 0,0.014 0,0.004 0,-10e-4 0.004,0.152 c -10e-4,0.445 -0.091,0.924 -0.176,1.336 -0.02,0.097 -0.04,0.188 -0.058,0.275 0.221,-0.045 0.47,-0.097 0.721,-0.147 0.332,-0.064 0.633,-0.121 0.887,-0.129 l 10e-4,0 0.073,-10e-4 c 0.339,0 0.652,0.066 0.922,0.184 0.267,0.122 0.508,0.287 0.654,0.58 0.057,0.117 0.088,0.252 0.088,0.381 -0.001,0.246 -0.101,0.444 -0.208,0.592 -0.11,0.151 -0.237,0.268 -0.363,0.374 -1.415,1.168 -2.976,2.264 -4.336,3.299 -0.541,0.411 -1.035,0.81 -1.481,1.199 l -0.004,-0.002 -0.163,0.147 -0.14,0.127 -0.778,0.701 -0.008,0.013 c -0.669,0.647 -1.162,1.484 -1.162,1.484 l 0,0.115 -0.014,0.116 c -0.247,1.58 -1.128,4.102 -1.128,4.102 0,0 1.521,-0.602 1.767,-0.71 L 1.508,-1.702 C 18.389,-9.213 27.857,-25.881 27.953,-45.236 27.801,-61.73 18.217,-76.785 5.806,-84.836" style="fill:#ffffff" />
    </g>
  </g>
</svg>
